<?xml version="1.0" encoding="utf-8" ?><svg xmlns="http://www.w3.org/2000/svg" xmlns:xlink="http://www.w3.org/1999/xlink" width="1024" height="1024" viewBox="0 0 1024 1024"><defs><linearGradient id="gradient_0" gradientUnits="userSpaceOnUse" x1="-60.087749" y1="944.0097" x2="960.68127" y2="172.39691"><stop offset="0" stop-color="#1D2E39"/><stop offset="1" stop-color="#664841"/></linearGradient></defs><path fill="url(#gradient_0)" d="M0 0L766.927 0L1024 0L1024 255.994L1024 1024L0 1024L0 0Z"/><defs><linearGradient id="gradient_1" gradientUnits="userSpaceOnUse" x1="810.76947" y1="207.42972" x2="1027.5151" y2="4.2839394"><stop offset="0" stop-color="#935A47" stop-opacity="0"/><stop offset="1" stop-color="#D37C52" stop-opacity="0"/></linearGradient></defs><path fill="url(#gradient_1)" d="M766.927 0L1024 0L1024 255.994L1023.56 256.612L1022.79 256.507C1021.73 257.094 1019.53 258.223 1018.78 258.958C1016.48 261.186 1007.99 266.966 1005.21 267.901C1002.16 268.926 995.829 272.285 993.951 272.651C985.174 274.36 979.892 276.937 973.987 283.893C972.749 285.352 970.547 287.448 968.679 288.246C962.424 290.919 955.628 293.24 949.549 296.299C945.121 298.527 939.729 303.699 934.592 304.889C932.258 305.43 929.956 303.362 927.002 303.312C918.06 303.161 910.267 302.807 901.323 303.486C894.67 297.032 892.033 292.357 887.413 284.347C884.12 278.637 879.313 272.495 875.307 267.159C872.97 264.045 874.63 262.727 872.77 259.701C864.468 253.51 868.918 247.036 857.203 243.496C846.224 240.179 840.302 228.456 836.187 218.535C834.057 213.398 820.24 206.166 815.122 203.072C808.934 202.021 804.457 191.814 800.731 189.659C791.956 184.584 792.059 183.632 786.591 175.637C785.227 173.643 775.919 170.525 773.271 166.007C769.483 159.543 769.903 154.546 766.69 148.097C761.252 139.903 748.895 129.393 741.53 123.269C732.989 116.168 730.066 86.4765 729.719 75.8298C729.422 62.9137 728.47 53.2861 733.638 41.0384C735.539 36.5329 739.39 31.7497 740.422 28.8592L741.043 29.0642L741.743 30.9214C741.768 26.7725 741.72 28.2806 744.364 24.9434C748.625 19.5775 753.474 15.0216 758.443 10.3499C760.795 8.13765 766.721 3.22512 766.927 0Z"/><defs><linearGradient id="gradient_2" gradientUnits="userSpaceOnUse" x1="430.76108" y1="425.09088" x2="414.77206" y2="598.05084"><stop offset="0" stop-color="#FFAB4B"/><stop offset="1" stop-color="#FF555C"/></linearGradient></defs><path fill="url(#gradient_2)" d="M351.158 431.256C359.417 431.148 369.63 429.892 377.577 431.908C384.308 433.615 404.361 456.056 410.213 462.343C413.223 465.577 416.289 469.587 419.856 472.206C420.765 472.874 422.097 473.822 423.292 473.528C429.04 472.112 455.636 439.299 465.042 433.258C466.639 432.232 468.304 431.813 470.166 431.552C475.075 430.863 502.829 430.713 507.425 431.736C509.314 432.156 511.145 433.189 512.639 434.399C515.134 436.419 516.816 439.064 517.149 442.286C518.026 450.748 517.474 459.665 517.456 468.194L517.412 514.154L517.468 557.713C517.489 570.674 521.568 594.067 502.647 592.5C491.976 591.616 467.444 597.087 465.94 582.127C464.881 571.583 465.49 557.279 465.51 546.398C465.519 540.594 466.259 514.327 464.329 510.828C463.13 510.01 462.468 509.662 460.968 510.238C452.975 513.305 431.175 543.288 422.937 543.55C421.316 543.602 420.171 543.01 418.863 542.138C411.43 537.178 397.57 521.44 390.275 514.327C388.366 512.465 385.507 509.498 382.726 509.516C379.828 511.852 380.808 523.851 380.84 527.659L381.012 563.285C381.035 568.994 381.454 577.218 380.631 582.75C378.754 595.367 359.86 592.119 350.865 592.522C340.545 592.983 328.67 592.443 328.614 579.211C328.575 569.992 328.528 560.389 328.528 551L328.516 497.421L328.495 462.979C328.493 456.611 328.31 450.378 328.786 444.019C329.806 430.385 340.846 431.195 351.158 431.256Z"/><defs><linearGradient id="gradient_3" gradientUnits="userSpaceOnUse" x1="785.6615" y1="432.75089" x2="782.50116" y2="592.23853"><stop offset="0" stop-color="#FFA64B"/><stop offset="1" stop-color="#FF6456"/></linearGradient></defs><path fill="url(#gradient_3)" d="M723.798 431.734L756.778 431.824C765.931 431.828 774.548 431.692 783.577 432.691C829.838 437.812 867.429 474.511 859.999 523.025C856.622 545.076 846.294 561.454 828.68 574.899C799.266 597.174 768.36 591.674 733.967 592.445C723.663 592.676 709.853 593.373 709.322 579.408C708.963 569.957 709.06 560.445 709.044 550.957L709 501.382L708.985 465.083C708.987 457.788 708.762 450.481 709.406 443.213C710.151 434.799 716.25 432.114 723.798 431.734Z"/><path fill="#624340" d="M762.24 484.079C773.668 483.316 789.901 482.864 798.09 491.891C809.294 504.242 807.959 522.802 796.291 534.053C788.305 540.307 771.439 543.432 762.268 540.207C759.428 539.208 760.937 492.509 760.761 487.148C760.728 486.163 761.71 484.809 762.24 484.079Z"/><defs><linearGradient id="gradient_4" gradientUnits="userSpaceOnUse" x1="620.04803" y1="432.00406" x2="606.50824" y2="591.8313"><stop offset="0" stop-color="#FFB44B"/><stop offset="1" stop-color="#FC466B"/></linearGradient></defs><path fill="url(#gradient_4)" d="M610.086 430.935C654.855 428.971 692.778 463.589 694.894 508.35C697.009 553.112 662.52 591.152 617.766 593.42C572.797 595.698 534.534 561.007 532.408 516.03C530.282 471.053 565.103 432.908 610.086 430.935Z"/><path fill="#3F3C3D" d="M573.581 470.236L627.722 470.333C632.741 470.343 654.191 469.462 656.78 471.576C657.221 473.357 657.895 477.471 657.813 479.162C657.389 487.928 658.983 546.512 657.221 551.803C655.952 553.332 655.625 553.329 653.783 553.96L602.809 553.974C595.634 553.973 574.392 554.904 569.053 552.283C567.609 550.223 568.071 539.777 568.063 536.776L568.101 511.217C568.122 499.634 567.759 488.04 567.969 476.466C568.055 471.683 569.178 470.775 573.581 470.236Z"/><path fill="#5EC069" d="M577.963 480.905C588.486 480.784 599.355 480.942 609.903 480.978L647.553 481.036C647.59 492.643 647.874 505.462 647.45 516.948C647.786 525.201 647.444 534.619 647.394 543.004C644.191 542.938 639.531 542.972 636.48 542.593C632.33 542.493 628.167 542.561 624.015 542.599C620.238 543.175 614.184 542.966 610.21 542.938C606.657 543.034 601.999 543.072 598.562 542.584L593.781 542.609C590.26 543.362 582.497 542.918 578.577 542.826C578.198 534.664 578.052 524.634 578.138 516.49C577.834 504.752 577.968 492.67 577.963 480.905Z"/><path fill="#32714D" d="M577.963 480.905C588.486 480.784 599.355 480.942 609.903 480.978C609.802 489.037 609.871 497.025 609.943 505.083C610.001 516.517 609.61 531.825 610.21 542.938C606.657 543.034 601.999 543.072 598.562 542.584L593.781 542.609C590.26 543.362 582.497 542.918 578.577 542.826C578.198 534.664 578.052 524.634 578.138 516.49C577.834 504.752 577.968 492.67 577.963 480.905Z"/><path fill="#624340" d="M609.943 505.083C610.001 516.517 609.61 531.825 610.21 542.938C606.657 543.034 601.999 543.072 598.562 542.584L593.781 542.609C590.26 543.362 582.497 542.918 578.577 542.826C578.198 534.664 578.052 524.634 578.138 516.49C580.92 516.559 585.782 516.539 588.386 516.834C591.324 516.954 595.464 516.649 598.487 516.508C598.563 512.768 598.461 508.765 598.434 505.003C602.23 505.035 606.16 505.124 609.943 505.083Z"/><path fill="#E0BFA6" d="M588.6 529.457L598.508 529.453L598.562 542.584L593.781 542.609C591.064 542.603 591.072 543.047 589.172 541.829C587.477 538.165 588.6 534.063 588.6 529.457Z"/><path fill="#3F3C3D" d="M588.461 504.86L598.434 505.003C598.461 508.765 598.563 512.768 598.487 516.508C595.464 516.649 591.324 516.954 588.386 516.834L588.461 504.86Z"/><path fill="#8B5A3C" d="M609.943 505.083C614.55 505.03 619.327 504.908 623.921 504.995C623.89 509.06 623.87 512.876 624.034 516.936L636.532 517.163C640.15 517.072 643.838 516.941 647.45 516.948C647.786 525.201 647.444 534.619 647.394 543.004C644.191 542.938 639.531 542.972 636.48 542.593C632.33 542.493 628.167 542.561 624.015 542.599C620.238 543.175 614.184 542.966 610.21 542.938C609.61 531.825 610.001 516.517 609.943 505.083Z"/><path fill="#E0BFA6" d="M624.024 529.502L636.437 529.557L636.48 542.593C632.33 542.493 628.167 542.561 624.015 542.599L624.024 529.502Z"/><path fill="#3F3C3D" d="M623.921 504.995C627.996 504.986 632.379 505.06 636.426 504.936L636.532 517.163L624.034 516.936C623.87 512.876 623.89 509.06 623.921 504.995Z"/><defs><linearGradient id="gradient_5" gradientUnits="userSpaceOnUse" x1="239.08505" y1="429.70361" x2="232.93904" y2="591.39679"><stop offset="0" stop-color="#FF9F4B"/><stop offset="1" stop-color="#FF5D5D"/></linearGradient></defs><path fill="url(#gradient_5)" d="M173.491 431.615C185.163 430.918 201.914 431.416 213.996 431.422L292.442 431.319C299.804 431.266 311.835 432.41 312.151 441.523C312.421 449.307 315.222 476.716 308.212 480.843C297.847 486.946 276.09 478.978 265.874 485.161C263.919 486.345 264.598 507.865 264.603 510.654L264.7 553.75C264.615 561.523 266.33 579.719 263.033 586.009C261.475 588.982 258.892 591.008 255.643 591.836C251.24 592.957 230.069 592.854 225.208 592.31C222.797 592.04 220.152 591.515 218.052 590.238C215.765 588.847 213.655 586.22 212.949 583.618C211.41 577.951 212.357 569.671 212.351 563.692C212.34 554.166 212.995 489.342 211.716 486.032C209.17 479.444 178.939 485.123 170.788 481.997C168.252 481.024 166.344 479.252 165.235 476.77C163.168 472.145 163.189 443.472 165.056 438.9C166.67 434.947 169.733 433.191 173.491 431.615Z"/></svg>